<svg width="500" height="326" viewBox="0 0 500 326" fill="none" xmlns="http://www.w3.org/2000/svg">
<path d="M153.488 304.428C156.871 297.122 160.251 289.706 161.719 281.789C163.187 273.872 162.571 265.28 158.366 258.413C154.161 251.546 145.882 246.889 137.981 248.442C131.492 249.717 126.281 254.828 123.23 260.695C120.179 266.563 118.955 273.181 117.768 279.687C117.385 272.296 116.979 264.785 114.523 257.803C112.068 250.821 107.233 244.314 100.342 241.612C93.4519 238.911 84.4882 241.035 80.8565 247.484C75.74 256.57 82.5243 269.314 76.6411 277.923C75.6319 269.288 66.6014 262.465 58.0187 263.854C49.4361 265.242 43.018 274.565 44.7835 283.078C45.8341 288.144 49.2903 292.452 53.4223 295.565C57.5544 298.678 62.3602 302.285 67.1142 304.326L153.488 304.428Z" fill="#57B894"/>
<path d="M49.2898 269.955C56.1073 272.338 62.9876 274.748 69.2117 278.473C74.7899 281.812 79.7573 286.308 82.8945 292.065C84.6134 295.154 85.634 298.582 85.8842 302.108C85.9295 302.845 87.0832 302.85 87.0376 302.108C86.6343 295.542 83.4344 289.533 79.0035 284.781C74.1456 279.571 67.8502 276.013 61.3506 273.252C57.4968 271.615 53.5473 270.224 49.5964 268.843C48.8943 268.597 48.5925 269.711 49.2898 269.955H49.2898Z" fill="white"/>
<path d="M88.6141 242.756C92.8027 249.735 96.1569 257.181 98.6077 264.942C101.063 272.7 102.61 280.717 103.217 288.832C103.553 293.374 103.59 297.934 103.327 302.482C103.284 303.223 104.438 303.221 104.48 302.482C104.946 294.283 104.449 286.058 103.002 277.974C101.556 269.891 99.181 262.003 95.9228 254.467C94.0939 250.234 91.9849 246.127 89.61 242.174C89.5301 242.048 89.4042 241.957 89.2588 241.922C89.1134 241.886 88.96 241.909 88.8308 241.984C88.7016 242.06 88.6068 242.182 88.5664 242.326C88.526 242.471 88.5431 242.625 88.6141 242.756V242.756Z" fill="white"/>
<path d="M145.064 249.382C139.139 262.694 134.97 276.719 132.661 291.105C132.012 295.146 131.51 299.207 131.155 303.288C131.09 304.027 132.244 304.023 132.308 303.288C133.564 288.933 136.666 274.801 141.539 261.24C142.908 257.428 144.415 253.669 146.06 249.964C146.358 249.291 145.365 248.704 145.064 249.382V249.382Z" fill="white"/>
<path d="M499.275 305.05H0.724638C0.532452 305.05 0.348137 304.974 0.212241 304.838C0.076345 304.702 0 304.517 0 304.325C0 304.133 0.076345 303.949 0.212241 303.813C0.348137 303.677 0.532452 303.601 0.724638 303.601H499.275C499.468 303.601 499.652 303.677 499.788 303.813C499.924 303.949 500 304.133 500 304.325C500 304.517 499.924 304.702 499.788 304.838C499.652 304.974 499.468 305.05 499.275 305.05Z" fill="#3F3D56"/>
<path d="M391.657 167.369C404.864 167.369 415.57 156.663 415.57 143.456C415.57 130.249 404.864 119.543 391.657 119.543C378.45 119.543 367.744 130.249 367.744 143.456C367.744 156.663 378.45 167.369 391.657 167.369Z" fill="#2F2E41"/>
<path d="M401.347 277.7L403.189 286.391L437.588 283.423L434.87 270.597L401.347 277.7Z" fill="#FFB8B8"/>
<path d="M398.671 304.862L392.882 277.548L403.436 275.312L406.988 292.073C407.581 294.872 407.038 297.792 405.478 300.19C403.918 302.589 401.47 304.269 398.671 304.862L398.671 304.862Z" fill="#2F2E41"/>
<path d="M379.797 277.236L375.925 285.233L343.241 274.104L348.956 262.304L379.797 277.236Z" fill="#FFB8B8"/>
<path d="M370.876 289.837L378.342 274.417L388.051 279.118L375.884 304.248C374.609 303.631 373.468 302.768 372.526 301.71C371.584 300.652 370.86 299.418 370.395 298.08C369.93 296.742 369.733 295.325 369.816 293.911C369.898 292.497 370.258 291.113 370.876 289.837V289.837Z" fill="#2F2E41"/>
<path d="M315.405 261.445C316.524 261.653 317.675 261.613 318.777 261.329C319.879 261.044 320.905 260.522 321.783 259.798C322.661 259.073 323.369 258.166 323.859 257.138C324.348 256.111 324.606 254.988 324.615 253.85L378.509 204.161L365.125 193.795L316.329 245.928C314.417 246.04 312.611 246.85 311.256 248.204C309.901 249.559 309.089 251.363 308.975 253.276C308.861 255.188 309.453 257.076 310.638 258.582C311.823 260.088 313.519 261.106 315.405 261.445H315.405Z" fill="#FFB8B8"/>
<path d="M388.655 168.449C398.485 168.449 406.453 160.481 406.453 150.651C406.453 140.822 398.485 132.854 388.655 132.854C378.826 132.854 370.858 140.822 370.858 150.651C370.858 160.481 378.826 168.449 388.655 168.449Z" fill="#FFB8B8"/>
<path d="M404.628 255.27C392.143 255.271 377.107 252.641 367.832 241.881L367.623 241.639L367.838 241.401C367.908 241.323 374.732 233.525 367.918 219.618L358.55 222.5L349.224 210.189L354.39 194.69L375.533 177.658C378.563 175.231 382.251 173.77 386.121 173.463C393.124 172.786 399.945 170.843 406.254 167.729C409.141 166.326 412.321 165.631 415.53 165.701L415.945 165.713C416.921 165.74 417.881 165.966 418.767 166.375C419.654 166.785 420.447 167.37 421.101 168.096C421.754 168.821 422.253 169.672 422.568 170.596C422.882 171.52 423.006 172.498 422.931 173.472C421.498 192.044 418.966 236.909 426.403 252.357L426.596 252.756L426.166 252.865C419.097 254.455 411.874 255.262 404.628 255.27V255.27Z" fill="#6C63FF"/>
<path d="M370.28 241.645C370.28 241.645 323.178 237.297 318.106 251.065C313.034 264.833 318.831 271.355 327.526 274.253C336.222 277.152 357.236 280.775 357.236 280.775L366.657 269.181L391.294 270.63C391.294 270.63 418.747 286.553 426.338 303.582C427.966 307.268 430.563 310.443 433.852 312.77C437.141 315.097 441 316.489 445.017 316.799C451.102 317.222 456.512 314.924 456.512 305.413C456.512 283.674 426.077 252.514 426.077 252.514L370.28 241.645Z" fill="#2F2E41"/>
<path d="M334.41 263.021C334.41 263.021 346.729 259.398 366.294 268.818Z" fill="#2F2E41"/>
<path d="M370.901 139.301C377.851 143.544 385.687 146.125 393.799 146.845L391.385 143.953C393.142 144.603 394.992 144.97 396.864 145.041C397.801 145.069 398.732 144.876 399.582 144.478C400.431 144.081 401.175 143.489 401.755 142.752C402.228 141.987 402.51 141.118 402.575 140.22C402.64 139.322 402.487 138.422 402.129 137.596C401.393 135.949 400.248 134.518 398.803 133.438C396.241 131.412 393.218 130.05 390.003 129.476C386.787 128.901 383.48 129.131 380.375 130.145C378.245 130.781 376.338 132.005 374.871 133.675C374.15 134.517 373.649 135.524 373.414 136.607C373.178 137.689 373.215 138.814 373.521 139.879" fill="#2F2E41"/>
<path d="M391.033 232.748L386.035 237.877L410.214 261.438L415.211 256.309L391.033 232.748Z" fill="#E6E6E6"/>
<path d="M410.515 256.731C409.526 257.745 408.861 259.03 408.602 260.422C408.344 261.815 408.504 263.253 409.063 264.554C409.622 265.856 410.554 266.962 411.742 267.734C412.93 268.505 414.32 268.907 415.736 268.889C417.152 268.871 418.531 268.433 419.699 267.631C420.866 266.829 421.769 265.699 422.294 264.383C422.819 263.068 422.942 261.626 422.648 260.241C422.354 258.855 421.655 257.588 420.641 256.6C419.281 255.274 417.45 254.543 415.551 254.568C413.652 254.593 411.84 255.371 410.515 256.731V256.731ZM417.841 263.87C417.418 264.305 416.875 264.605 416.281 264.731C415.687 264.857 415.069 264.804 414.506 264.579C413.942 264.354 413.457 263.967 413.114 263.466C412.77 262.966 412.582 262.375 412.575 261.768C412.567 261.161 412.739 260.566 413.07 260.057C413.4 259.548 413.875 259.148 414.432 258.909C414.99 258.669 415.606 258.6 416.203 258.711C416.8 258.822 417.35 259.107 417.785 259.53C418.368 260.099 418.702 260.875 418.712 261.689C418.723 262.503 418.409 263.287 417.841 263.87Z" fill="#E6E6E6"/>
<path d="M383.681 223.137L387.08 226.555L385.427 232.422L379.403 233.891L376.245 230.715C376.029 232.517 376.383 234.342 377.256 235.933C378.13 237.524 379.479 238.802 381.115 239.587C382.752 240.373 384.593 240.626 386.381 240.313C388.168 239.999 389.813 239.134 391.084 237.838C392.356 236.543 393.189 234.882 393.469 233.088C393.749 231.295 393.46 229.459 392.644 227.838C391.828 226.217 390.524 224.892 388.917 224.049C387.31 223.206 385.479 222.887 383.681 223.137V223.137Z" fill="#E6E6E6"/>
<path d="M397.635 255.333C397.328 255.332 397.021 255.315 396.716 255.282C394.927 255.074 393.261 254.268 391.987 252.995C390.714 251.721 389.908 250.055 389.701 248.266C389.574 247.15 389.684 246.02 390.024 244.949C390.364 243.879 390.926 242.892 391.674 242.054C392.422 241.216 393.338 240.546 394.363 240.086C395.388 239.627 396.499 239.39 397.622 239.39C397.978 239.391 398.333 239.418 398.685 239.469L423.017 213.566L420.477 205.099L433.234 199.381L436.809 208.12C438.007 211.08 438.219 214.348 437.413 217.438C436.606 220.528 434.825 223.276 432.333 225.274L405.55 246.579C405.578 246.838 405.592 247.099 405.593 247.36C405.592 248.481 405.356 249.59 404.898 250.613C404.441 251.636 403.773 252.552 402.938 253.3C401.485 254.613 399.594 255.338 397.635 255.333Z" fill="#FFB8B8"/>
<path d="M416.657 169.18C417.5 168.805 418.411 168.605 419.334 168.591C420.257 168.577 421.174 168.749 422.028 169.098C422.883 169.447 423.658 169.965 424.308 170.622C424.957 171.278 425.467 172.058 425.807 172.917L438.396 204.688L418.831 217.731L416.657 169.18Z" fill="#6C63FF"/>
<path d="M324.99 176.599V18.306C324.983 13.4531 323.052 8.80085 319.621 5.36929C316.189 1.93774 311.537 0.00686651 306.684 0H57.9376C53.0846 0.00686843 48.4324 1.93774 45.0009 5.36929C41.5693 8.80085 39.6384 13.4531 39.6316 18.306V176.599C39.6384 181.452 41.5693 186.104 45.0009 189.536C48.4324 192.967 53.0846 194.898 57.9376 194.905H306.684C311.537 194.898 316.189 192.967 319.621 189.536C323.052 186.104 324.983 181.452 324.99 176.599ZM57.9376 192.752C53.6553 192.746 49.5499 191.043 46.5219 188.015C43.4939 184.987 41.7904 180.881 41.7852 176.599V18.306C41.7904 14.0237 43.4939 9.91834 46.5219 6.89032C49.5499 3.86229 53.6553 2.15885 57.9376 2.15363H306.684C310.966 2.15884 315.072 3.86229 318.1 6.89032C321.128 9.91834 322.831 14.0237 322.836 18.306V176.599C322.831 180.881 321.128 184.987 318.1 188.015C315.072 191.043 310.966 192.746 306.684 192.752H57.9376Z" fill="#3F3D56"/>
<path d="M322.836 28.4808H41.7852C41.4996 28.4808 41.2257 28.3673 41.0238 28.1654C40.8219 27.9634 40.7084 27.6895 40.7084 27.404C40.7084 27.1184 40.8219 26.8445 41.0238 26.6425C41.2257 26.4406 41.4996 26.3271 41.7852 26.3271H322.836C323.122 26.3271 323.396 26.4406 323.598 26.6425C323.8 26.8445 323.913 27.1184 323.913 27.404C323.913 27.6895 323.8 27.9634 323.598 28.1654C323.396 28.3673 323.122 28.4808 322.836 28.4808Z" fill="#3F3D56"/>
<path d="M60.0912 20.4597C63.0648 20.4597 65.4753 18.0491 65.4753 15.0755C65.4753 12.102 63.0648 9.69141 60.0912 9.69141C57.1176 9.69141 54.7071 12.102 54.7071 15.0755C54.7071 18.0491 57.1176 20.4597 60.0912 20.4597Z" fill="#6C63FF"/>
<path d="M78.3972 20.4597C81.3708 20.4597 83.7814 18.0491 83.7814 15.0755C83.7814 12.102 81.3708 9.69141 78.3972 9.69141C75.4237 9.69141 73.0131 12.102 73.0131 15.0755C73.0131 18.0491 75.4237 20.4597 78.3972 20.4597Z" fill="#6C63FF"/>
<path d="M96.7033 20.4597C99.6769 20.4597 102.087 18.0491 102.087 15.0755C102.087 12.102 99.6769 9.69141 96.7033 9.69141C93.7297 9.69141 91.3192 12.102 91.3192 15.0755C91.3192 18.0491 93.7297 20.4597 96.7033 20.4597Z" fill="#6C63FF"/>
<path d="M136.941 144.371C136.846 144.371 136.752 144.352 136.664 144.316C136.576 144.279 136.496 144.226 136.429 144.159C136.361 144.091 136.308 144.011 136.272 143.923C136.235 143.835 136.216 143.741 136.216 143.646C136.216 136.09 132.904 131.876 127.56 127.525C127.486 127.465 127.425 127.391 127.379 127.307C127.334 127.223 127.306 127.131 127.296 127.037C127.286 126.942 127.295 126.846 127.322 126.755C127.349 126.663 127.394 126.578 127.455 126.504C127.515 126.43 127.589 126.369 127.673 126.324C127.757 126.279 127.849 126.251 127.944 126.241C128.038 126.231 128.134 126.241 128.225 126.268C128.317 126.296 128.402 126.341 128.475 126.401C134.149 131.021 137.666 135.517 137.666 143.646C137.666 143.741 137.647 143.835 137.611 143.923C137.574 144.011 137.521 144.091 137.454 144.159C137.386 144.226 137.306 144.279 137.218 144.316C137.131 144.352 137.036 144.371 136.941 144.371Z" fill="black"/>
<path d="M74.8671 144.371C74.7719 144.371 74.6777 144.352 74.5898 144.316C74.5018 144.279 74.4219 144.226 74.3546 144.159C74.2873 144.091 74.234 144.011 74.1976 143.923C74.1612 143.835 74.1424 143.741 74.1425 143.646C74.1425 135.517 77.6588 131.021 83.3328 126.401C83.4065 126.341 83.4915 126.296 83.5827 126.268C83.674 126.241 83.7698 126.231 83.8646 126.241C83.9595 126.251 84.0515 126.279 84.1354 126.324C84.2193 126.369 84.2935 126.43 84.3537 126.504C84.4139 126.578 84.4589 126.663 84.4861 126.755C84.5134 126.846 84.5223 126.942 84.5125 127.037C84.5027 127.131 84.4742 127.223 84.4288 127.307C84.3834 127.391 84.3218 127.465 84.2478 127.525C78.9039 131.876 75.5917 136.091 75.5917 143.646C75.5918 143.741 75.573 143.835 75.5366 143.923C75.5002 144.011 75.4468 144.091 75.3795 144.159C75.3123 144.226 75.2324 144.279 75.1444 144.316C75.0565 144.352 74.9623 144.371 74.8671 144.371Z" fill="black"/>
<path d="M130.734 94.7112C130.585 94.7112 130.439 94.665 130.316 94.5787C130.194 94.4925 130.101 94.3705 130.051 94.2295C130.001 94.0885 129.996 93.9355 130.036 93.7914C130.076 93.6473 130.16 93.5192 130.276 93.4247C135.77 88.9527 136.216 82.5997 136.216 75.3643C136.216 75.1721 136.293 74.9878 136.429 74.8519C136.565 74.716 136.749 74.6396 136.941 74.6396C137.133 74.6396 137.318 74.716 137.453 74.8519C137.589 74.9878 137.666 75.1721 137.666 75.3643C137.666 82.9765 137.178 89.6741 131.191 94.5484C131.062 94.6539 130.901 94.7115 130.734 94.7112V94.7112Z" fill="black"/>
<path d="M81.0743 94.3234C80.9077 94.3237 80.7461 94.2662 80.6171 94.1607C74.6297 89.286 74.1425 82.7642 74.1425 75.3643C74.1425 75.1721 74.2188 74.9878 74.3547 74.8519C74.4906 74.716 74.6749 74.6396 74.8671 74.6396C75.0593 74.6396 75.2436 74.716 75.3795 74.8519C75.5154 74.9878 75.5917 75.1721 75.5917 75.3643C75.5917 82.6372 76.0291 88.5567 81.5321 93.0369C81.6482 93.1314 81.7321 93.2595 81.7724 93.4036C81.8127 93.5477 81.8074 93.7007 81.7572 93.8417C81.7071 93.9827 81.6145 94.1047 81.4922 94.1909C81.3699 94.2772 81.2239 94.3234 81.0743 94.3234V94.3234Z" fill="black"/>
<path d="M146.252 110.255H130.734C130.542 110.255 130.357 110.179 130.222 110.043C130.086 109.907 130.009 109.722 130.009 109.53C130.009 109.338 130.086 109.154 130.222 109.018C130.357 108.882 130.542 108.806 130.734 108.806H146.252C146.445 108.806 146.629 108.882 146.765 109.018C146.901 109.154 146.977 109.338 146.977 109.53C146.977 109.722 146.901 109.907 146.765 110.043C146.629 110.179 146.445 110.255 146.252 110.255Z" fill="black"/>
<path d="M81.0746 110.255H65.5561C65.3639 110.255 65.1796 110.179 65.0437 110.043C64.9078 109.907 64.8315 109.722 64.8315 109.53C64.8315 109.338 64.9078 109.154 65.0437 109.018C65.1796 108.882 65.3639 108.806 65.5561 108.806H81.0746C81.2668 108.806 81.4512 108.882 81.5871 109.018C81.723 109.154 81.7993 109.338 81.7993 109.53C81.7993 109.722 81.723 109.907 81.5871 110.043C81.4512 110.179 81.2668 110.255 81.0746 110.255Z" fill="black"/>
<path d="M105.904 141.267C105.809 141.267 105.715 141.248 105.627 141.212C105.539 141.175 105.459 141.122 105.392 141.055C105.324 140.987 105.271 140.907 105.235 140.819C105.198 140.731 105.179 140.637 105.179 140.542V90.8828C105.179 90.6907 105.256 90.5063 105.392 90.3704C105.528 90.2345 105.712 90.1582 105.904 90.1582C106.096 90.1582 106.281 90.2345 106.416 90.3704C106.552 90.5063 106.629 90.6907 106.629 90.8828V140.542C106.629 140.637 106.61 140.731 106.574 140.819C106.537 140.907 106.484 140.987 106.417 141.055C106.349 141.122 106.269 141.175 106.181 141.212C106.093 141.248 105.999 141.267 105.904 141.267V141.267Z" fill="black"/>
<path d="M105.904 141.267C99.129 141.259 92.6337 138.564 87.8431 133.773C83.0524 128.982 80.3577 122.487 80.35 115.712V97.0764C80.35 85.1429 90.1418 77.7295 105.904 77.7295C122.383 77.7295 131.459 84.6005 131.459 97.0764V115.712C131.451 122.487 128.756 128.983 123.965 133.773C119.175 138.564 112.679 141.259 105.904 141.267V141.267ZM105.904 79.1788C94.2511 79.1788 81.7992 83.8804 81.7992 97.0764V115.712C81.7975 118.879 82.4197 122.015 83.6303 124.941C84.8409 127.867 86.6162 130.526 88.8547 132.765C91.0933 135.005 93.7512 136.782 96.6766 137.994C99.602 139.206 102.738 139.83 105.904 139.83C109.071 139.83 112.206 139.206 115.132 137.994C118.057 136.782 120.715 135.005 122.954 132.765C125.192 130.526 126.968 127.867 128.178 124.941C129.389 122.015 130.011 118.879 130.009 115.712V97.0764C130.009 81.5041 114.906 79.1788 105.904 79.1788V79.1788Z" fill="black"/>
<path d="M91.0515 82.2035C90.9064 82.2035 90.7648 82.16 90.6447 82.0786C90.5247 81.9972 90.4318 81.8817 90.3781 81.747C89.9596 80.6995 89.7176 79.5898 89.662 78.4632C89.6746 74.167 91.3842 70.0499 94.4184 67.0085C97.4525 63.967 101.566 62.2476 105.862 62.2246H105.945C110.235 62.2451 114.344 63.9584 117.378 66.9922C120.412 70.0259 122.126 74.1347 122.147 78.4253C122.11 79.4734 121.886 80.5066 121.488 81.4767C121.414 81.6531 121.273 81.793 121.096 81.8661C120.919 81.9391 120.721 81.9392 120.544 81.8665C120.367 81.7937 120.226 81.6539 120.152 81.4776C120.077 81.3013 120.076 81.1028 120.147 80.9254C120.478 80.122 120.665 79.2666 120.699 78.3984C120.673 74.4957 119.109 70.7606 116.347 68.0039C113.584 65.2471 109.846 63.6912 105.943 63.6739H105.863C101.956 63.6933 98.2148 65.2542 95.4522 68.0171C92.6896 70.78 91.1292 74.5217 91.1102 78.4288C91.1616 79.3831 91.369 80.3226 91.7241 81.2099C91.7678 81.3198 91.784 81.4388 91.7712 81.5564C91.7584 81.674 91.717 81.7867 91.6507 81.8847C91.5844 81.9826 91.4951 82.0629 91.3907 82.1185C91.2862 82.174 91.1698 82.2032 91.0515 82.2035H91.0515Z" fill="black"/>
<path d="M179.5 78.2631H170.805C169.459 78.2631 168.169 77.7287 167.218 76.7774C166.267 75.8261 165.732 74.5359 165.732 73.1906C165.732 71.8453 166.267 70.5551 167.218 69.6039C168.169 68.6526 169.459 68.1182 170.805 68.1182H179.5C180.846 68.1182 182.136 68.6526 183.087 69.6039C184.038 70.5551 184.573 71.8453 184.573 73.1906C184.573 74.5359 184.038 75.8261 183.087 76.7774C182.136 77.7287 180.846 78.2631 179.5 78.2631V78.2631Z" fill="#CCCCCC"/>
<path d="M238.921 99.6391H230.225C228.88 99.6391 227.589 99.1046 226.638 98.1534C225.687 97.2021 225.152 95.9119 225.152 94.5666C225.152 93.2213 225.687 91.9311 226.638 90.9798C227.589 90.0286 228.88 89.4941 230.225 89.4941H238.921C240.266 89.4941 241.556 90.0286 242.507 90.9798C243.459 91.9311 243.993 93.2213 243.993 94.5666C243.993 95.9119 243.459 97.2021 242.507 98.1534C241.556 99.1046 240.266 99.6391 238.921 99.6391V99.6391Z" fill="#CCCCCC"/>
<path d="M266.457 99.6391H257.761C256.416 99.6391 255.126 99.1046 254.174 98.1534C253.223 97.2021 252.689 95.9119 252.689 94.5666C252.689 93.2213 253.223 91.9311 254.174 90.9798C255.126 90.0286 256.416 89.4941 257.761 89.4941H266.457C267.802 89.4941 269.092 90.0286 270.044 90.9798C270.995 91.9311 271.529 93.2213 271.529 94.5666C271.529 95.9119 270.995 97.2021 270.044 98.1534C269.092 99.1046 267.802 99.6391 266.457 99.6391V99.6391Z" fill="#CCCCCC"/>
<path d="M293.993 99.6391H285.297C283.952 99.6391 282.662 99.1046 281.711 98.1534C280.759 97.2021 280.225 95.9119 280.225 94.5666C280.225 93.2213 280.759 91.9311 281.711 90.9798C282.662 90.0286 283.952 89.4941 285.297 89.4941H293.993C295.338 89.4941 296.629 90.0286 297.58 90.9798C298.531 91.9311 299.066 93.2213 299.066 94.5666C299.066 95.9119 298.531 97.2021 297.58 98.1534C296.629 99.1046 295.338 99.6391 293.993 99.6391V99.6391Z" fill="#CCCCCC"/>
<path d="M239.645 78.6254H199.066C197.72 78.6254 196.43 78.091 195.479 77.1397C194.527 76.1884 193.993 74.8982 193.993 73.5529C193.993 72.2076 194.527 70.9174 195.479 69.9662C196.43 69.0149 197.72 68.4805 199.066 68.4805H239.645C240.991 68.4805 242.281 69.0149 243.232 69.9662C244.183 70.9174 244.718 72.2076 244.718 73.5529C244.718 74.8982 244.183 76.1884 243.232 77.1397C242.281 78.091 240.991 78.6254 239.645 78.6254Z" fill="#CCCCCC"/>
<path d="M211.384 98.9145H170.805C169.459 98.9145 168.169 98.38 167.218 97.4288C166.267 96.4775 165.732 95.1873 165.732 93.842C165.732 92.4967 166.267 91.2065 167.218 90.2552C168.169 89.304 169.459 88.7695 170.805 88.7695H211.384C212.73 88.7695 214.02 89.304 214.971 90.2552C215.922 91.2065 216.457 92.4967 216.457 93.842C216.457 95.1873 215.922 96.4775 214.971 97.4288C214.02 98.38 212.73 98.9145 211.384 98.9145Z" fill="#CCCCCC"/>
<path d="M291.095 78.6254H259.935C258.59 78.6254 257.3 78.091 256.348 77.1397C255.397 76.1884 254.863 74.8982 254.863 73.5529C254.863 72.2076 255.397 70.9174 256.348 69.9662C257.3 69.0149 258.59 68.4805 259.935 68.4805H291.095C292.44 68.4805 293.73 69.0149 294.681 69.9662C295.633 70.9174 296.167 72.2076 296.167 73.5529C296.167 74.8982 295.633 76.1884 294.681 77.1397C293.73 78.091 292.44 78.6254 291.095 78.6254Z" fill="#CCCCCC"/>
<path d="M179.5 121.016H170.805C169.459 121.016 168.169 120.482 167.218 119.53C166.267 118.579 165.732 117.289 165.732 115.944C165.732 114.598 166.267 113.308 167.218 112.357C168.169 111.406 169.459 110.871 170.805 110.871H179.5C180.846 110.871 182.136 111.406 183.087 112.357C184.038 113.308 184.573 114.598 184.573 115.944C184.573 117.289 184.038 118.579 183.087 119.53C182.136 120.482 180.846 121.016 179.5 121.016V121.016Z" fill="#CCCCCC"/>
<path d="M239.645 121.378H199.066C197.72 121.378 196.43 120.844 195.479 119.893C194.527 118.941 193.993 117.651 193.993 116.306C193.993 114.961 194.527 113.67 195.479 112.719C196.43 111.768 197.72 111.233 199.066 111.233H239.645C240.991 111.233 242.281 111.768 243.232 112.719C244.183 113.67 244.718 114.961 244.718 116.306C244.718 117.651 244.183 118.941 243.232 119.893C242.281 120.844 240.991 121.378 239.645 121.378V121.378Z" fill="#CCCCCC"/>
<path d="M291.095 121.378H259.935C258.59 121.378 257.3 120.844 256.348 119.893C255.397 118.941 254.863 117.651 254.863 116.306C254.863 114.961 255.397 113.67 256.348 112.719C257.3 111.768 258.59 111.233 259.935 111.233H291.095C292.44 111.233 293.73 111.768 294.681 112.719C295.633 113.67 296.167 114.961 296.167 116.306C296.167 117.651 295.633 118.941 294.681 119.893C293.73 120.844 292.44 121.378 291.095 121.378V121.378Z" fill="#CCCCCC"/>
<path d="M277.326 138.407C277.328 137.063 277.863 135.773 278.814 134.822C279.765 133.871 281.054 133.336 282.399 133.335H291.095C292.44 133.335 293.73 133.869 294.681 134.821C295.633 135.772 296.167 137.062 296.167 138.407C296.167 139.753 295.633 141.043 294.681 141.994C293.73 142.945 292.44 143.48 291.095 143.48H282.399C281.054 143.478 279.765 142.943 278.814 141.993C277.863 141.042 277.328 139.752 277.326 138.407V138.407Z" fill="#CCCCCC"/>
<path d="M217.182 138.77C217.183 137.425 217.718 136.136 218.669 135.185C219.62 134.234 220.909 133.699 222.254 133.697H262.834C264.179 133.697 265.469 134.232 266.42 135.183C267.372 136.134 267.906 137.424 267.906 138.77C267.906 140.115 267.372 141.405 266.42 142.356C265.469 143.308 264.179 143.842 262.834 143.842H222.254C220.909 143.841 219.62 143.306 218.669 142.355C217.718 141.404 217.183 140.115 217.182 138.77Z" fill="#CCCCCC"/>
<path d="M165.732 138.77C165.734 137.425 166.269 136.136 167.22 135.185C168.17 134.234 169.46 133.699 170.805 133.697H201.964C203.309 133.697 204.6 134.232 205.551 135.183C206.502 136.134 207.037 137.424 207.037 138.77C207.037 140.115 206.502 141.405 205.551 142.356C204.6 143.308 203.309 143.842 201.964 143.842H170.805C169.46 143.841 168.17 143.306 167.22 142.355C166.269 141.404 165.734 140.115 165.732 138.77Z" fill="#CCCCCC"/>
</svg>
